<?xml version="1.0" encoding="UTF-8" standalone="no"?>
<svg id="Layer_1" viewBox="0 0 1263 732" xmlns="http://www.w3.org/2000/svg" data-name="Layer 1">
 <defs>
  <style>.cls-1{opacity:0.5;}.cls-2{fill:#b4d2f8;}</style>
 </defs>
 <title>img</title>
 <g class="cls-1">
  <path class="cls-2" d="m105 222.59v5.14a1.67 1.67 0 0 1 -1.66 1.66h-1.8a1.66 1.66 0 0 1 -1.66 -1.66v-5.14h-5a1.66 1.66 0 0 1 -1.66 -1.66v-1.8a1.66 1.66 0 0 1 1.66 -1.66h5v-5.14a1.66 1.66 0 0 1 1.66 -1.66h1.8a1.67 1.67 0 0 1 1.66 1.66v5.14h5a1.66 1.66 0 0 1 1.66 1.66v1.8a1.66 1.66 0 0 1 -1.66 1.66z"/>
  <path class="cls-2" d="m124.06 352.83v5.17a1.66 1.66 0 0 1 -1.66 1.66h-1.8a1.66 1.66 0 0 1 -1.66 -1.66v-5.14h-5a1.66 1.66 0 0 1 -1.66 -1.66v-1.8a1.65 1.65 0 0 1 1.66 -1.65h5v-5.14a1.66 1.66 0 0 1 1.66 -1.66h1.8a1.66 1.66 0 0 1 1.66 1.66v5.14h5a1.66 1.66 0 0 1 1.66 1.65v1.8a1.66 1.66 0 0 1 -1.66 1.66z"/>
  <path class="cls-2" d="m451.25 209.88v5.12a1.66 1.66 0 0 1 -1.66 1.66h-1.8a1.66 1.66 0 0 1 -1.66 -1.66v-5.14h-5a1.66 1.66 0 0 1 -1.66 -1.66v-1.8a1.66 1.66 0 0 1 1.66 -1.65h5v-5.14a1.66 1.66 0 0 1 1.66 -1.66h1.8a1.66 1.66 0 0 1 1.66 1.66v5.14h5a1.65 1.65 0 0 1 1.66 1.65v1.8a1.66 1.66 0 0 1 -1.66 1.66z"/>
  <path class="cls-2" d="m522.73 27.22v5.14a1.66 1.66 0 0 1 -1.66 1.64h-1.8a1.66 1.66 0 0 1 -1.66 -1.66v-5.12h-5a1.65 1.65 0 0 1 -1.66 -1.65v-1.8a1.66 1.66 0 0 1 1.66 -1.66h5v-5.11a1.66 1.66 0 0 1 1.66 -1.66h1.8a1.66 1.66 0 0 1 1.66 1.66v5.14h5a1.66 1.66 0 0 1 1.66 1.66v1.8a1.66 1.66 0 0 1 -1.66 1.65z"/>
  <path class="cls-2" d="m1002.4 222.59v5.14a1.66 1.66 0 0 1 -1.66 1.66h-1.7a1.66 1.66 0 0 1 -1.66 -1.66v-5.14h-5a1.66 1.66 0 0 1 -1.66 -1.66v-1.8a1.66 1.66 0 0 1 1.66 -1.66h5v-5.14a1.66 1.66 0 0 1 1.66 -1.66h1.79a1.66 1.66 0 0 1 1.66 1.66v5.14h5a1.66 1.66 0 0 1 1.66 1.66v1.8a1.66 1.66 0 0 1 -1.66 1.66z"/>
  <path class="cls-2" d="m856.28 151.11v5.14a1.66 1.66 0 0 1 -1.66 1.66h-1.8a1.66 1.66 0 0 1 -1.66 -1.66v-5.14h-5a1.65 1.65 0 0 1 -1.66 -1.65v-1.8a1.66 1.66 0 0 1 1.66 -1.66h5v-5.14a1.66 1.66 0 0 1 1.66 -1.66h1.8a1.66 1.66 0 0 1 1.66 1.66v5.14h5a1.66 1.66 0 0 1 1.66 1.66v1.8a1.66 1.66 0 0 1 -1.66 1.65z"/>
  <path class="cls-2" d="m1021.5 349.66v5.13a1.66 1.66 0 0 1 -1.66 1.66h-1.8a1.66 1.66 0 0 1 -1.66 -1.66v-5.13h-5a1.66 1.66 0 0 1 -1.66 -1.66v-1.8a1.66 1.66 0 0 1 1.66 -1.66h5v-5.14a1.66 1.66 0 0 1 1.66 -1.66h1.79a1.66 1.66 0 0 1 1.66 1.66v5.14h5a1.66 1.66 0 0 1 1.66 1.66v1.8a1.66 1.66 0 0 1 -1.66 1.66z"/>
  <path class="cls-2" d="m862.63 533.9v5.1a1.66 1.66 0 0 1 -1.63 1.7h-1.8a1.66 1.66 0 0 1 -1.66 -1.66v-5.14h-5a1.66 1.66 0 0 1 -1.66 -1.66v-1.8a1.66 1.66 0 0 1 1.66 -1.65h5v-5.14a1.66 1.66 0 0 1 1.66 -1.66h1.8a1.66 1.66 0 0 1 1.66 1.66v5.14h5a1.65 1.65 0 0 1 1.66 1.65v1.8a1.66 1.66 0 0 1 -1.66 1.66z"/>
  <path class="cls-2" d="m664.09 626v5.13a1.66 1.66 0 0 1 -1.66 1.66h-1.8a1.66 1.66 0 0 1 -1.66 -1.66v-5.13h-5a1.66 1.66 0 0 1 -1.66 -1.66v-1.8a1.66 1.66 0 0 1 1.66 -1.66h5v-5.14a1.66 1.66 0 0 1 1.66 -1.66h1.8a1.66 1.66 0 0 1 1.66 1.66v5.14h5a1.66 1.66 0 0 1 1.66 1.66v1.8a1.66 1.66 0 0 1 -1.66 1.66z"/>
  <path class="cls-2" d="m381.37 610.14v5.14a1.66 1.66 0 0 1 -1.66 1.66h-1.8a1.66 1.66 0 0 1 -1.66 -1.66v-5.14h-5a1.66 1.66 0 0 1 -1.66 -1.66v-1.8a1.65 1.65 0 0 1 1.66 -1.65h5v-5.14a1.66 1.66 0 0 1 1.66 -1.66h1.8a1.66 1.66 0 0 1 1.66 1.66v5.11h5a1.66 1.66 0 0 1 1.66 1.65v1.8a1.66 1.66 0 0 1 -1.66 1.66z"/>
  <path class="cls-2" d="m867.4 683.21v5.13a1.66 1.66 0 0 1 -1.66 1.66h-1.8a1.66 1.66 0 0 1 -1.66 -1.66v-5.13h-5a1.66 1.66 0 0 1 -1.66 -1.66v-1.8a1.66 1.66 0 0 1 1.66 -1.66h5v-5.09a1.66 1.66 0 0 1 1.66 -1.66h1.8a1.66 1.66 0 0 1 1.66 1.66v5.14h5a1.66 1.66 0 0 1 1.66 1.66v1.8a1.67 1.67 0 0 1 -1.66 1.66z"/>
  <circle cy="33.58" cx="1245.8" r="3.97" class="cls-2"/>
  <circle cy="41.52" cx="1182.3" r="3.97" class="cls-2"/>
  <circle cy="178.11" cx="1220.4" r="3.97" class="cls-2"/>
  <circle cy="133.64" cx="1053.6" r="3.97" class="cls-2"/>
  <circle cy="33.58" cx="1063.2" r="3.97" class="cls-2"/>
  <circle cy="14.52" cx="950.4" r="3.97" class="cls-2"/>
  <circle cy="49.46" cx="885.28" r="3.97" class="cls-2"/>
  <circle cy="103.46" cx="934.51" r="3.97" class="cls-2"/>
  <circle cy="71.7" cx="1009.2" r="3.97" class="cls-2"/>
  <circle cy="254.35" cx="880.51" r="3.97" class="cls-2"/>
  <circle cy="281.36" cx="1028.2" r="3.97" class="cls-2"/>
  <circle cy="365.54" cx="1071.1" r="3.97" class="cls-2"/>
  <circle cy="419.54" cx="1012.3" r="3.97" class="cls-2"/>
  <circle cy="502.13" cx="1128.3" r="3.97" class="cls-2"/>
  <circle cy="608.55" cx="1018.7" r="3.97" class="cls-2"/>
  <circle cy="660.97" cx="745.5" r="3.97" class="cls-2"/>
  <circle cy="600.61" cx="704.21" r="3.97" class="cls-2"/>
  <circle cy="576.79" cx="470.72" r="3.97" class="cls-2"/>
  <circle cy="476.6" cx="607.32" r="3.97" class="cls-2"/>
  <circle cy="470.37" cx="421.48" r="3.97" class="cls-2"/>
  <circle cy="654.61" cx="459.6" r="3.97" class="cls-2"/>
  <circle cy="378.24" cx="602.55" r="3.97" class="cls-2"/>
  <circle cy="351.24" cx="521.55" r="3.97" class="cls-2"/>
  <circle cy="470.37" cx="486.6" r="3.97" class="cls-2"/>
  <circle cy="643.5" cx="1147.4" r="3.97" class="cls-2"/>
  <circle cy="576.79" cx="1085.4" r="3.97" class="cls-2"/>
  <circle cy="657.79" cx="1056.8" r="3.97" class="cls-2"/>
  <circle cy="578.37" cx="904.34" r="3.97" class="cls-2"/>
  <circle cy="522.78" cx="985.34" r="3.97" class="cls-2"/>
  <circle cy="514.84" cx="1242.6" r="3.97" class="cls-2"/>
  <circle cy="481.49" cx="843.98" r="3.97" class="cls-2"/>
  <circle cy="608.55" cx="794.74" r="3.97" class="cls-2"/>
  <circle cy="471.96" cx="904.34" r="3.97" class="cls-2"/>
  <circle cy="370.3" cx="840.8" r="3.97" class="cls-2"/>
  <circle cy="456.54" cx="795.04" r="3.97" class="cls-2"/>
  <circle cy="219.41" cx="934.51" r="3.97" class="cls-2"/>
  <circle cy="333.77" cx="1123.5" r="3.97" class="cls-2"/>
  <circle cy="309.95" cx="1190.2" r="3.97" class="cls-2"/>
  <circle cy="395.72" cx="1107.6" r="3.97" class="cls-2"/>
  <circle cy="468.78" cx="1077.5" r="3.97" class="cls-2"/>
  <circle cy="456.07" cx="1250.6" r="3.97" class="cls-2"/>
  <circle cy="151.11" cx="1074.3" r="3.97" class="cls-2"/>
  <circle cy="259.12" cx="1101.3" r="3.97" class="cls-2"/>
  <circle cy="160.64" cx="1144.2" r="3.97" class="cls-2"/>
  <circle cy="112.99" cx="1239.5" r="3.97" class="cls-2"/>
  <circle cy="257.53" cx="1198.2" r="3.97" class="cls-2"/>
  <circle cy="289.3" cx="1242.6" r="3.97" class="cls-2"/>
  <circle cy="403.66" cx="1193.4" r="3.97" class="cls-2"/>
  <circle cy="39.93" cx="810.62" r="3.97" class="cls-2"/>
  <circle cy="9.75" cx="759.8" r="3.97" class="cls-2"/>
  <circle cy="51.05" cx="697.85" r="3.97" class="cls-2"/>
  <circle cy="76.46" cx="753.44" r="3.97" class="cls-2"/>
  <circle cy="106.64" cx="782.03" r="3.97" class="cls-2"/>
  <circle cy="117.76" cx="713.74" r="3.97" class="cls-2"/>
  <circle cy="133.64" cx="651.79" r="3.97" class="cls-2"/>
  <circle cy="179.7" cx="707.38" r="3.97" class="cls-2"/>
  <circle cy="168.58" cx="607.32" r="3.97" class="cls-2"/>
  <circle cy="24.05" cx="569.2" r="3.97" class="cls-2"/>
  <circle cy="122.52" cx="588.26" r="3.97" class="cls-2"/>
  <circle cy="152.7" cx="564.43" r="3.97" class="cls-2"/>
  <circle cy="211.47" cx="539.02" r="3.97" class="cls-2"/>
  <circle cy="8.16" cx="419.89" r="3.97" class="cls-2"/>
  <circle cy="33.58" cx="348.42" r="3.97" class="cls-2"/>
  <circle cy="122.52" cx="464.37" r="3.97" class="cls-2"/>
  <circle cy="152.7" cx="176.88" r="3.97" class="cls-2"/>
  <circle cy="79.64" cx="191.17" r="3.97" class="cls-2"/>
  <circle cy="279.77" cx="133.99" r="3.97" class="cls-2"/>
  <circle cy="314.71" cx="22.81" r="3.97" class="cls-2"/>
  <circle cy="219.41" cx="37.11" r="3.97" class="cls-2"/>
  <circle cy="165.41" cx="245.18" r="3.97" class="cls-2"/>
  <circle cy="97.11" cx="369.07" r="3.97" class="cls-2"/>
  <circle cy="179.7" cx="324.59" r="3.97" class="cls-2"/>
  <circle cy="257.53" cx="302.36" r="3.97" class="cls-2"/>
  <circle cy="309.95" cx="297.59" r="3.97" class="cls-2"/>
  <circle cy="252.77" cx="221.35" r="3.97" class="cls-2"/>
  <circle cy="333.77" cx="226.12" r="3.97" class="cls-2"/>
  <circle cy="394.13" cx="210.23" r="3.97" class="cls-2"/>
  <circle cy="498.96" cx="230.88" r="3.97" class="cls-2"/>
  <circle cy="632.38" cx="278.53" r="3.97" class="cls-2"/>
  <circle cy="576.79" cx="191.17" r="3.97" class="cls-2"/>
  <circle cy="656.2" cx="162.58" r="3.97" class="cls-2"/>
  <circle cy="699.09" cx="208.65" r="3.97" class="cls-2"/>
  <circle cy="516.43" cx="345.24" r="3.97" class="cls-2"/>
  <circle cy="467.19" cx="183.23" r="3.97" class="cls-2"/>
  <circle cy="606.96" cx="121.29" r="3.97" class="cls-2"/>
  <circle cy="470.37" cx="8.52" r="3.97" class="cls-2"/>
  <circle cy="579.96" cx="8.52" r="3.97" class="cls-2"/>
  <circle cy="707.03" cx="22.81" r="3.97" class="cls-2"/>
  <circle cy="456.07" cx="353.18" r="3.97" class="cls-2"/>
  <circle cy="367.13" cx="173.7" r="3.97" class="cls-2"/>
  <circle cy="421.13" cx="116.52" r="3.97" class="cls-2"/>
  <circle cy="486.25" cx="86.34" r="3.97" class="cls-2"/>
  <circle cy="206.7" cx="375.42" r="3.97" class="cls-2"/>
  <circle cy="329.01" cx="392.89" r="3.97" class="cls-2"/>
  <circle cy="383.01" cx="307.12" r="3.97" class="cls-2"/>
  <circle cy="41.52" cx="281.71" r="3.97" class="cls-2"/>
  <circle cy="130.46" cx="156.23" r="3.97" class="cls-2"/>
  <circle cy="28.81" cx="121.29" r="3.97" class="cls-2"/>
  <circle cy="101.87" cx="37.11" r="3.97" class="cls-2"/>
  <circle cy="16.1" cx="54.58" r="3.97" class="cls-2"/>
  <circle cy="101.87" cx="265.83" r="5.56" class="cls-2"/>
  <circle cy="263.88" cx="405.6" r="5.56" class="cls-2"/>
  <circle cy="535.49" cx="405.6" r="5.56" class="cls-2"/>
  <circle cy="638.73" cx="524.72" r="5.56" class="cls-2"/>
  <circle cy="651.44" cx="421.48" r="5.56" class="cls-2"/>
  <circle cy="540.25" cx="278.53" r="5.56" class="cls-2"/>
  <circle cy="416.36" cx="57.75" r="5.56" class="cls-2"/>
  <circle cy="619.67" cx="64.11" r="5.56" class="cls-2"/>
  <circle cy="248" cx="507.25" r="5.56" class="cls-2"/>
  <circle cy="152.7" cx="92.7" r="5.56" class="cls-2"/>
  <circle cy="103.46" cx="1161.6" r="5.56" class="cls-2"/>
  <circle cy="151.11" cx="990.11" r="5.56" class="cls-2"/>
  <circle cy="240.06" cx="654.97" r="5.56" class="cls-2"/>
  <circle cy="240.06" cx="815.39" r="5.56" class="cls-2"/>
  <circle cy="618.08" cx="959.93" r="5.56" class="cls-2"/>
  <circle cy="543.43" cx="1174.4" r="5.56" class="cls-2"/>
 </g>
</svg>
