<?xml version="1.0" encoding="UTF-8" standalone="no"?>
<svg id="Layer_1" viewBox="0 0 564 171" xmlns="http://www.w3.org/2000/svg" xmlns:xlink="http://www.w3.org/1999/xlink" data-name="Layer 1">
 <defs>
  <style>.cls-1{fill:none;}.cls-2{fill:#36c8e3;}.cls-3{clip-path:url(#clip-path);}.cls-4{fill:#30ddf4;}</style>
  <clipPath id="clip-path">
   <ellipse rx="230.27" transform="translate(-15.98 104.41) rotate(-14.5)" ry="184.35" cy="115" cx="402.29" class="cls-1"/>
  </clipPath>
 </defs>
 <title>img</title>
 <path class="cls-2" d="m408.75 151.09c-10.08-7-9.8-24.7-9.8-24.7l33-38.55 1-1.2 0.14-0.17-29.09-39.94s-1-16.42 9.78-24.78l46.55 60.64h99.82s-48.15-64.71-52.86-71.79a18.87 18.87 0 0 0 -16.15 -8.5h-171.29l0.34 16.28-29.09-16.28h-91.1l1.23 17.77-17.23-17.77h-14.24c-2.89-0.44-7.07 5.24-7.07 5.24l-37.69 53.66-122.13 11.11v9.62h231.42l46.76-60.24s12.13 7.1 12.1 24.07l-31.65 40.89 32 38.21s-1.3 14.88-12.61 21l-46.6-51.79h-198.39l1.39 6.39 92.28 5.74c-3.84 1-32.77 17.84-32.77 17.84l6.3 3.28c-0.28-0.27 30.57-8.33 34.73-9.82l27.48 43.11a9.11 9.11 0 0 0 8.25 5.12c6.16 0.11 20.65 0 20.65 0l-2.85-18.07 16.48 18.07h5l-1.34-18.3 26.5 18.33h208.34v-11.63l20.38 11.63h23.44a15 15 0 0 0 13.2 -5.91c5.32-7 56.81-65 56.81-65h-99.84zm-87.16 4.44h-11.53l49.8-129.95a13.91 13.91 0 0 1 13.61 -9.12h11.51l-49.25 129.4a15.32 15.32 0 0 1 -14.14 9.67z"/>
 <g class="cls-3">
  <path class="cls-4" d="m408.75 151.09c-10.08-7-9.8-24.7-9.8-24.7l33-38.55 1-1.2 0.14-0.17-29.09-39.94s-1-16.42 9.78-24.78l46.55 60.64h99.82s-48.15-64.71-52.86-71.79a18.87 18.87 0 0 0 -16.15 -8.5h-171.29l0.34 16.28-29.09-16.28h-91.1l1.23 17.77-17.23-17.77h-14.24c-2.89-0.44-7.07 5.24-7.07 5.24l-37.69 53.66-122.13 11.11v9.62h231.42l46.76-60.24s12.13 7.1 12.1 24.07l-31.65 40.89 32 38.21s-1.3 14.88-12.61 21l-46.6-51.79h-198.39l1.39 6.39 92.28 5.74c-3.84 1-32.77 17.84-32.77 17.84l6.3 3.28c-0.28-0.27 30.57-8.33 34.73-9.82l27.48 43.11a9.11 9.11 0 0 0 8.25 5.12c6.16 0.11 20.65 0 20.65 0l-2.85-18.07 16.48 18.07h5l-1.34-18.3 26.5 18.33h208.34v-11.63l20.38 11.63h23.44a15 15 0 0 0 13.2 -5.91c5.32-7 56.81-65 56.81-65h-99.84zm-87.16 4.44h-11.53l49.8-129.95a13.91 13.91 0 0 1 13.61 -9.12h11.51l-49.25 129.4a15.32 15.32 0 0 1 -14.14 9.67z"/>
 </g>
</svg>
