<svg id="Layer_1" data-name="Layer 1" xmlns="http://www.w3.org/2000/svg" viewBox="0 0 403.59 325.81"><defs><style>.cls-1,.cls-18,.cls-4{fill:#2561a1;}.cls-1,.cls-10,.cls-11,.cls-12,.cls-13,.cls-14,.cls-15,.cls-16,.cls-17,.cls-18,.cls-19,.cls-20,.cls-21,.cls-4,.cls-5,.cls-6,.cls-7{stroke:#322d63;}.cls-1,.cls-10,.cls-11,.cls-13,.cls-14,.cls-15,.cls-16,.cls-17,.cls-20,.cls-21,.cls-4,.cls-7{stroke-miterlimit:10;}.cls-1,.cls-10{stroke-width:6.9px;}.cls-13,.cls-2,.cls-20{fill:#b4d2f8;}.cls-15,.cls-3,.cls-5{fill:#36c8e3;}.cls-14,.cls-15,.cls-17,.cls-19,.cls-20,.cls-21,.cls-4,.cls-5{stroke-width:7px;}.cls-12,.cls-16,.cls-18,.cls-19,.cls-20,.cls-21,.cls-5,.cls-6{stroke-linecap:round;}.cls-12,.cls-18,.cls-19,.cls-5,.cls-6{stroke-linejoin:round;}.cls-10,.cls-16,.cls-17,.cls-6{fill:none;}.cls-16,.cls-6{stroke-width:6.88px;}.cls-11,.cls-14,.cls-7{fill:#ffc975;}.cls-7{stroke-width:6.6px;}.cls-8{fill:#322d63;}.cls-12,.cls-19,.cls-21,.cls-9{fill:#fff;}.cls-11{stroke-width:7.06px;}.cls-12{stroke-width:7.07px;}.cls-13{stroke-width:7.06px;}.cls-18{stroke-width:6.89px;}</style></defs><title>img</title><circle class="cls-1" cx="250.21" cy="172.43" r="149.93"/><path class="cls-2" d="M339.14,237.93c17.07-39.1-29-46.91-85.6-71.61s-116.25-13-133.32,26.08,14.95,90.8,71.51,115.49S322.07,277,339.14,237.93Z"/><path class="cls-3" d="M394.37,200.27c-6.52-22-61.29,23.75-122.32,41.82-28.78,8.52-46.7,20.64-68.05,26.23-23.94,6.27-49.51,6.07-46.07,17.71,6.52,22,74.83,49,135.86,31S400.89,222.29,394.37,200.27Z"/><path class="cls-4" d="M134.7,142.08c0-51.65,15-93.52,69.42-93.52s98.61,41.87,98.61,93.52Z"/><path class="cls-5" d="M394.37,200.27c-10.31-15.32-37.31-17.09-39.35-17-37.2,1.74-57.38,34.89-59.25,38.08A52.13,52.13,0,0,0,231,247.09,37,37,0,0,0,185,272.9a19.41,19.41,0,0,0-13.88-3.35c-6,1.15-16.75,11.4-15.89,17.95"/><path class="cls-6" d="M367.22,264.35c-3.09-2.39-6.2-1.45-8.32-2-4.56-1.18-.21-11.56-7.26-19.9a30.8,30.8,0,0,0-23.8-10.69c-16.1,0-29.45,11.16-31.86,25.75-16.62.69-31.12,10.57-31.12,25.22"/><rect class="cls-7" x="157.88" y="78.39" width="52.89" height="47.83" transform="translate(126.33 -100.38) rotate(45)"/><path class="cls-8" d="M224.41,293.55v.15a2.12,2.12,0,0,1-2.12,2.12H220a2.12,2.12,0,0,1-2.12-2.12v-.15a6.4,6.4,0,0,0-6.41-6.4h0a2.12,2.12,0,0,1-2.11-2.12v-2.29a2.12,2.12,0,0,1,2.11-2.12h0a6.41,6.41,0,0,0,6.41-6.41v-.15A2.12,2.12,0,0,1,220,272h2.29a2.12,2.12,0,0,1,2.12,2.11v.15a6.4,6.4,0,0,0,6.4,6.41h0a2.12,2.12,0,0,1,2.12,2.12V285a2.12,2.12,0,0,1-2.12,2.12h0A6.39,6.39,0,0,0,224.41,293.55Z"/><path class="cls-8" d="M289.72,287.68v.1a1.42,1.42,0,0,1-1.42,1.43h-1.55a1.43,1.43,0,0,1-1.43-1.43v-.1a4.33,4.33,0,0,0-4.33-4.33h0a1.43,1.43,0,0,1-1.43-1.43v-1.55A1.43,1.43,0,0,1,281,279h0a4.33,4.33,0,0,0,4.33-4.33v-.1a1.43,1.43,0,0,1,1.43-1.43h1.55a1.42,1.42,0,0,1,1.42,1.43v.1a4.33,4.33,0,0,0,4.33,4.33h0a1.43,1.43,0,0,1,1.43,1.42v1.55a1.43,1.43,0,0,1-1.43,1.43h0A4.33,4.33,0,0,0,289.72,287.68Z"/><path class="cls-8" d="M250.73,307.4v.1a1.43,1.43,0,0,1-1.43,1.43h-1.55a1.43,1.43,0,0,1-1.43-1.43v-.1a4.31,4.31,0,0,0-4.32-4.32h0a1.43,1.43,0,0,1-1.43-1.43V300.1a1.43,1.43,0,0,1,1.43-1.43h0a4.31,4.31,0,0,0,4.32-4.32v-.1a1.43,1.43,0,0,1,1.43-1.43h1.55a1.43,1.43,0,0,1,1.43,1.43v.1a4.32,4.32,0,0,0,4.32,4.32h0a1.43,1.43,0,0,1,1.43,1.43v1.55a1.43,1.43,0,0,1-1.43,1.43h0A4.32,4.32,0,0,0,250.73,307.4Z"/><ellipse class="cls-2" cx="121.91" cy="118.58" rx="28.39" ry="12.7" transform="translate(-35.54 182.86) rotate(-66.41)"/><path class="cls-9" d="M379.27,170.06v.08a1.14,1.14,0,0,1-1.13,1.13h-1.23a1.14,1.14,0,0,1-1.13-1.13v-.08a3.43,3.43,0,0,0-3.43-3.43h0a1.13,1.13,0,0,1-1.13-1.13v-1.23a1.14,1.14,0,0,1,1.13-1.13h0a3.42,3.42,0,0,0,3.43-3.43v-.08a1.14,1.14,0,0,1,1.13-1.13h1.23a1.14,1.14,0,0,1,1.13,1.13v.08a3.43,3.43,0,0,0,3.43,3.43h0a1.14,1.14,0,0,1,1.13,1.13v1.23a1.13,1.13,0,0,1-1.13,1.13h0A3.44,3.44,0,0,0,379.27,170.06Z"/><path class="cls-9" d="M280.14,53.25v.07a1,1,0,0,1-1,1H278a1,1,0,0,1-1-1v-.07a3.1,3.1,0,0,0-3.11-3.1h0a1,1,0,0,1-1-1V48a1,1,0,0,1,1-1h0a3.1,3.1,0,0,0,3.11-3.1v-.07a1,1,0,0,1,1-1h1.11a1,1,0,0,1,1,1v.07a3.09,3.09,0,0,0,3.1,3.1h0a1,1,0,0,1,1,1v1.11a1,1,0,0,1-1,1h0A3.09,3.09,0,0,0,280.14,53.25Z"/><path class="cls-9" d="M333.27,168.26v.09a1.38,1.38,0,0,1-1.38,1.38H330.4a1.38,1.38,0,0,1-1.38-1.38v-.09a4.18,4.18,0,0,0-4.17-4.18h0a1.37,1.37,0,0,1-1.38-1.37v-1.5a1.38,1.38,0,0,1,1.38-1.38h0a4.17,4.17,0,0,0,4.17-4.17v-.1a1.37,1.37,0,0,1,1.38-1.37h1.49a1.37,1.37,0,0,1,1.38,1.37v.1a4.17,4.17,0,0,0,4.17,4.17h0a1.38,1.38,0,0,1,1.38,1.38v1.5a1.37,1.37,0,0,1-1.38,1.37h0A4.18,4.18,0,0,0,333.27,168.26Z"/><circle class="cls-10" cx="250.21" cy="172.43" r="149.93"/><path class="cls-9" d="M314.24,81.78v.1a1.38,1.38,0,0,1-1.38,1.38h-1.49A1.38,1.38,0,0,1,310,81.88v-.1a4.17,4.17,0,0,0-4.17-4.17h0a1.38,1.38,0,0,1-1.38-1.38V74.74a1.38,1.38,0,0,1,1.38-1.38h0A4.17,4.17,0,0,0,310,69.19v-.1a1.38,1.38,0,0,1,1.38-1.38h1.49a1.38,1.38,0,0,1,1.38,1.38v.1a4.17,4.17,0,0,0,4.17,4.17h0a1.38,1.38,0,0,1,1.38,1.38v1.49a1.38,1.38,0,0,1-1.38,1.38h0A4.17,4.17,0,0,0,314.24,81.78Z"/><polygon class="cls-11" points="302.74 158.5 101.9 158.5 104.89 142.08 302.74 142.08 302.74 158.5"/><rect class="cls-12" x="101.81" y="178.14" width="200.92" height="31.61"/><rect class="cls-13" x="101.9" y="158.38" width="200.83" height="19.76"/><path class="cls-14" d="M132.23,97.51,92,57.3C68.69,34,116.21-13.55,139.53,9.78L179.75,50C197.52,67.76,150,115.29,132.23,97.51Z"/><ellipse class="cls-15" cx="120.76" cy="38.44" rx="32.08" ry="18.64" transform="translate(5.36 90.83) rotate(-42.08)"/><path class="cls-16" d="M331.22,246.93a12.43,12.43,0,0,1,11.92,11.93"/><line class="cls-17" x1="142.05" y1="158.38" x2="142.05" y2="178.14"/><line class="cls-17" x1="162.26" y1="158.38" x2="162.26" y2="178.14"/><line class="cls-17" x1="182.19" y1="158.38" x2="182.19" y2="178.14"/><line class="cls-17" x1="202.26" y1="159.25" x2="202.26" y2="179.01"/><line class="cls-17" x1="222.19" y1="159.25" x2="222.19" y2="179.01"/><line class="cls-17" x1="242.55" y1="158.38" x2="242.55" y2="178.14"/><line class="cls-17" x1="262.47" y1="158.38" x2="262.47" y2="178.14"/><line class="cls-17" x1="282.01" y1="158.38" x2="282.01" y2="178.14"/><path class="cls-18" d="M175,126.78l-26-25-13.27-.59c-3.17,3.18-6.92,9.88-9.39,18.64a69,69,0,0,0-2.5,22.3H175Z"/><path class="cls-19" d="M175,126.78V142l127.75.1c-1.33-12.14-7-48.41-37.17-73.12a75.12,75.12,0,0,0-38.35-16.62C203.09,49.48,180.62,84.23,175,126.78Z"/><path class="cls-4" d="M320.89,192.3l-21.06-15.38"/><path class="cls-20" d="M308,158.38h-5.3"/><path class="cls-20" d="M312.52,142h-8.63"/><path class="cls-19" d="M195,218.4H181.43c-.41-9.65-.3-6.17-.41-9.65A19.44,19.44,0,0,0,161.37,190a20,20,0,0,0-15,6.64,33.63,33.63,0,0,0,.74-7c0-20.55-18.45-37.21-41.21-37.21S64.7,169.09,64.7,189.64a34.11,34.11,0,0,0,.91,7.8,29,29,0,0,0-16.9-5.14c-13.59,0-24.6,8.4-24.6,18.76,0,2.61.18,4,.18,7.34H11.07a10.21,10.21,0,0,0,0,19.73H195a9.91,9.91,0,0,0,0-19.73Zm-53.32-9.65"/><path class="cls-21" d="M113.39,172.18c1,0,7.49,3.08,10.42,6.24a22.79,22.79,0,0,1,5.88,11"/><path class="cls-9" d="M344.7,139.29c-11.66,0-21.15-9.77-21.15-21.78S333,95.73,344.7,95.73a20.89,20.89,0,0,1,14.43,5.88,21.09,21.09,0,0,0-7.79,4c-4,3.26-6.24,7.5-6.24,11.94,0,6.62,5.74,13.9,14,16A20.89,20.89,0,0,1,344.7,139.29Z"/><path class="cls-8" d="M344.7,99.5a16.7,16.7,0,0,1,6.74,1.42c-5.76,3.6-10.1,9.56-10.1,16.59s4.34,13,10.1,16.59a16.7,16.7,0,0,1-6.74,1.42c-9.59,0-17.38-8.08-17.38-18s7.79-18,17.38-18m0-7.53c-13.76,0-24.91,11.43-24.91,25.54s11.15,25.54,24.91,25.54A24.7,24.7,0,0,0,365,132.37a1.39,1.39,0,0,0-1.25-2.12h0c-6.86,0-14.82-5.7-14.82-12.74s8-12.75,14.82-12.75h0a1.38,1.38,0,0,0,1.25-2.11A24.67,24.67,0,0,0,344.7,92Z"/></svg>